<svg width="75" height="56" viewBox="0 0 75 56" fill="none" xmlns="http://www.w3.org/2000/svg">
<path d="M18.4125 53.736V27.6372C18.4315 27.329 18.3874 27.0203 18.2832 26.7299C18.1789 26.4395 18.0165 26.1737 17.8061 25.9488C17.5957 25.7238 17.3418 25.5446 17.0598 25.4221C16.7779 25.2995 16.474 25.2363 16.1668 25.2363C15.8596 25.2363 15.5557 25.2995 15.2738 25.4221C14.9919 25.5446 14.7379 25.7238 14.5275 25.9488C14.3171 26.1737 14.1547 26.4395 14.0504 26.7299C13.9462 27.0203 13.9021 27.329 13.9211 27.6372V53.736C13.9204 54.11 14.0124 54.4783 14.189 54.8075C14.1985 54.8265 14.2092 54.8448 14.2211 54.8624C14.2275 54.8721 14.2307 54.8817 14.2371 54.8914C14.2414 54.9007 14.2468 54.9094 14.2532 54.9173C14.4626 55.2572 14.7579 55.5352 15.109 55.7231C15.4601 55.911 15.8545 56.0019 16.2519 55.9867C16.6494 55.9715 17.0358 55.8507 17.3717 55.6365C17.7075 55.4224 17.9809 55.1225 18.1639 54.7676C18.1639 54.7676 18.164 54.7612 18.1704 54.7547C18.1745 54.7444 18.1799 54.7346 18.1864 54.7256C18.1891 54.7178 18.1923 54.7103 18.1961 54.703C18.1999 54.6957 18.2031 54.6882 18.2057 54.6804C18.2122 54.6707 18.2154 54.6578 18.2218 54.6481C18.2282 54.6384 18.2218 54.6384 18.2218 54.6352C18.2218 54.6319 18.2346 54.6061 18.2411 54.5932C18.2403 54.5911 18.2403 54.5888 18.2411 54.5867C18.268 54.5208 18.2916 54.4536 18.3118 54.3853C18.3176 54.3696 18.3219 54.3534 18.3247 54.3369C18.3247 54.3369 18.3247 54.3369 18.3247 54.3304C18.3275 54.316 18.3318 54.3019 18.3375 54.2884C18.3372 54.283 18.3372 54.2777 18.3375 54.2723C18.3375 54.2626 18.3375 54.2497 18.3439 54.24C18.3504 54.2303 18.344 54.2174 18.3504 54.2077C18.3501 54.2023 18.3501 54.1969 18.3504 54.1915C18.3801 54.0419 18.3951 53.8897 18.3954 53.7371" fill="#191919"/>
<path d="M29.3036 40.6871C29.2908 40.0975 29.0487 39.5363 28.6293 39.1239C28.2098 38.7114 27.6463 38.4805 27.0595 38.4805C26.4727 38.4805 25.9092 38.7114 25.4897 39.1239C25.0703 39.5363 24.8282 40.0975 24.8154 40.6871V55.9887H29.3068V40.6871H29.3036Z" fill="#191919"/>
<path d="M18.4125 53.7359V53.6777C18.4037 53.3253 18.3131 52.9797 18.1479 52.6687L13.9243 44.7498L4.22678 26.5699C4.0343 26.2099 3.74836 25.909 3.39934 25.6993C3.05032 25.4896 2.65126 25.3789 2.24463 25.3789C1.87596 25.3779 1.51287 25.4693 1.18821 25.6449C0.928399 25.7848 0.698577 25.9748 0.511862 26.204C0.325146 26.4333 0.185211 26.6972 0.100038 26.9808C0.0148652 27.2644 -0.0138654 27.5621 0.0154824 27.8569C0.0448302 28.1517 0.131681 28.4377 0.271078 28.6987L14.1921 54.8009C14.1921 54.8009 14.1921 54.8009 14.1921 54.8073C14.2016 54.8263 14.2124 54.8447 14.2243 54.8622C14.2307 54.8719 14.2339 54.8816 14.2404 54.8913C14.2445 54.9006 14.2499 54.9093 14.2564 54.9172C14.3055 54.9991 14.3607 55.0772 14.4214 55.1508C14.469 55.211 14.5209 55.2675 14.5768 55.3199C14.5896 55.3328 14.5993 55.3457 14.6121 55.3587C14.67 55.4168 14.7353 55.4663 14.7964 55.518C14.8061 55.5245 14.8157 55.5342 14.8253 55.5406C14.8928 55.5891 14.9614 55.6343 15.0321 55.6774L15.0611 55.6968C15.1382 55.7388 15.2164 55.7775 15.2968 55.8131C15.3025 55.8156 15.308 55.8188 15.3129 55.8228C15.7764 56.0181 16.2927 56.0478 16.7754 55.9068C16.7928 55.9024 16.81 55.897 16.8268 55.8906C16.9007 55.868 16.9757 55.8389 17.0497 55.8098C17.0749 55.7993 17.0996 55.7874 17.1236 55.7743L17.2307 55.7291C17.2564 55.7161 17.2757 55.7 17.2982 55.6871C17.3468 55.6576 17.3921 55.6286 17.4343 55.5999C17.4793 55.5676 17.5243 55.5385 17.5672 55.5029C17.6095 55.4697 17.6495 55.4338 17.6872 55.3953C17.7257 55.3597 17.7675 55.3242 17.8039 55.2876C17.8403 55.251 17.8779 55.2003 17.9111 55.1573C17.9443 55.1142 17.9754 55.083 18.0011 55.0442C18.0628 54.9588 18.118 54.8688 18.1661 54.775C18.1661 54.775 18.1661 54.7685 18.1725 54.7621C18.1766 54.7517 18.182 54.742 18.1886 54.733C18.1912 54.7253 18.1945 54.7177 18.1982 54.7104C18.202 54.7031 18.2053 54.6956 18.2079 54.6878C18.2143 54.6781 18.2175 54.6652 18.2239 54.6555C18.2303 54.6458 18.2239 54.6458 18.2239 54.6426C18.2239 54.6393 18.2368 54.6135 18.2432 54.6006C18.2425 54.5985 18.2425 54.5962 18.2432 54.5941C18.2701 54.5282 18.2937 54.461 18.3139 54.3927C18.3197 54.377 18.324 54.3608 18.3268 54.3443C18.3268 54.3443 18.3268 54.3443 18.3268 54.3378C18.3296 54.3234 18.3339 54.3094 18.3396 54.2958C18.3393 54.2905 18.3393 54.285 18.3396 54.2797C18.3396 54.27 18.3396 54.2571 18.3461 54.2474C18.3525 54.2377 18.3461 54.2247 18.3525 54.2151C18.3522 54.2097 18.3522 54.2043 18.3525 54.1989C18.3794 54.0478 18.3933 53.8947 18.3943 53.7413" fill="#191919"/>
<path d="M4.49145 40.4108L0 31.9922V55.988H4.49145V40.4108Z" fill="#191919"/>
<path d="M38.2264 38.4281H31.0896V42.9422H38.2264C38.533 42.9612 38.8402 42.917 39.1291 42.8121C39.4181 42.7073 39.6826 42.5442 39.9064 42.3328C40.1302 42.1213 40.3085 41.866 40.4304 41.5827C40.5523 41.2993 40.6152 40.9939 40.6152 40.6852C40.6152 40.3764 40.5523 40.071 40.4304 39.7877C40.3085 39.5043 40.1302 39.249 39.9064 39.0376C39.6826 38.8261 39.4181 38.663 39.1291 38.5582C38.8402 38.4534 38.533 38.4091 38.2264 38.4281Z" fill="#191919"/>
<path d="M39.6278 51.4809H31.0896V55.9949H39.6278C39.9344 56.014 40.2417 55.9697 40.5306 55.8649C40.8195 55.7601 41.084 55.5969 41.3078 55.3855C41.5316 55.174 41.7099 54.9188 41.8318 54.6354C41.9538 54.3521 42.0166 54.0466 42.0166 53.7379C42.0166 53.4292 41.9538 53.1238 41.8318 52.8404C41.7099 52.557 41.5316 52.3018 41.3078 52.0903C41.084 51.8789 40.8195 51.7157 40.5306 51.6109C40.2417 51.5061 39.9344 51.4618 39.6278 51.4809Z" fill="#191919"/>
<path d="M13.9243 44.75V53.7361C13.9232 54.1101 14.0153 54.4784 14.1922 54.8075C14.201 54.8269 14.2117 54.8453 14.2243 54.8624C14.2307 54.8721 14.234 54.8818 14.2404 54.8915C14.2446 54.9008 14.25 54.9095 14.2564 54.9173C14.3055 54.9992 14.3607 55.0774 14.4215 55.151C14.4412 55.1751 14.4627 55.1978 14.4857 55.2188C14.5179 55.2544 14.5468 55.2899 14.579 55.3265C14.5879 55.3398 14.5988 55.3518 14.6111 55.3621C14.6304 55.3814 14.6529 55.3976 14.6722 55.417C14.7172 55.4557 14.759 55.4977 14.8082 55.5333C14.8147 55.5333 14.8179 55.543 14.8243 55.5462C14.8932 55.5957 14.9647 55.6413 15.0386 55.683L15.0675 55.7023C15.1125 55.7282 15.1639 55.7508 15.2132 55.7734C15.2625 55.796 15.2743 55.8057 15.3064 55.8186C15.3064 55.8186 15.3129 55.8186 15.3193 55.8251C15.4045 55.8605 15.4919 55.8907 15.5807 55.9155L15.6193 55.9252C15.8028 55.972 15.9914 55.9959 16.1807 55.9963C16.3872 55.9969 16.5928 55.9686 16.7915 55.9123L16.8333 55.8994C16.9104 55.8735 16.9886 55.8477 17.0625 55.8154C17.085 55.8057 17.1075 55.7928 17.13 55.7831C17.1911 55.754 17.25 55.7217 17.3079 55.6894C17.3657 55.6571 17.3979 55.6345 17.4407 55.6054C17.4836 55.5763 17.5308 55.544 17.5768 55.5085C17.6188 55.4753 17.6585 55.4393 17.6957 55.4008C17.7054 55.3944 17.7118 55.3847 17.7214 55.3782C17.7504 55.3491 17.7857 55.3201 17.8147 55.291C17.8436 55.2619 17.8886 55.2038 17.9218 55.1607C17.955 55.1176 17.9861 55.0864 18.0118 55.0476C18.0736 54.9623 18.1288 54.8723 18.1768 54.7784C18.1768 54.7784 18.1768 54.772 18.1832 54.7655C18.1873 54.7551 18.1927 54.7454 18.1993 54.7364C18.1993 54.7267 18.2057 54.7203 18.209 54.7106L18.2186 54.6912C18.225 54.6815 18.2282 54.6686 18.2347 54.6589C18.2411 54.6492 18.2347 54.6492 18.2347 54.646L18.254 54.604C18.254 54.604 18.254 54.604 18.254 54.5975C18.2809 54.5316 18.3045 54.4644 18.3247 54.3962C18.3308 54.3794 18.3351 54.3621 18.3375 54.3445C18.3375 54.3445 18.3375 54.3445 18.3375 54.338C18.3403 54.3236 18.3446 54.3095 18.3504 54.296C18.3504 54.2895 18.3504 54.2863 18.3504 54.2799C18.3504 54.2734 18.3504 54.2572 18.3568 54.2476C18.3632 54.2379 18.3568 54.2249 18.3632 54.2153C18.3697 54.2056 18.3632 54.2055 18.3632 54.1991C18.3929 54.0505 18.408 53.8994 18.4082 53.7479V53.6876C18.3995 53.3351 18.3089 52.9896 18.1436 52.6786L13.9243 44.75Z" fill="#191919"/>
<path d="M18.4126 53.7364C18.4126 54.1826 18.281 54.6188 18.0343 54.9898C17.7877 55.3607 17.4371 55.6499 17.027 55.8206C16.6168 55.9914 16.1655 56.036 15.7301 55.949C15.2947 55.862 14.8947 55.6471 14.5808 55.3316C14.2668 55.0161 14.0531 54.6141 13.9665 54.1765C13.8799 53.7389 13.9243 53.2853 14.0942 52.8731C14.2641 52.4609 14.5518 52.1086 14.9209 51.8607C15.29 51.6128 15.724 51.4805 16.168 51.4805C16.4628 51.4803 16.7548 51.5386 17.0271 51.6519C17.2995 51.7652 17.547 51.9314 17.7555 52.1409C17.9639 52.3504 18.1293 52.5992 18.2421 52.8729C18.3548 53.1467 18.4128 53.4401 18.4126 53.7364Z" fill="#191919"/>
<path d="M24.8154 40.6865V32.8257C24.8154 30.8503 25.5962 28.9558 26.9861 27.5589C28.3759 26.1621 30.261 25.3774 32.2265 25.3774H39.6279C39.9345 25.3583 40.2417 25.4025 40.5307 25.5074C40.8196 25.6122 41.0841 25.7753 41.3079 25.9868C41.5317 26.1982 41.71 26.4535 41.8319 26.7369C41.9539 27.0202 42.0168 27.3257 42.0168 27.6344C42.0168 27.9431 41.9539 28.2485 41.8319 28.5319C41.71 28.8152 41.5317 29.0705 41.3079 29.2819C41.0841 29.4934 40.8196 29.6566 40.5307 29.7614C40.2417 29.8662 39.9345 29.9104 39.6279 29.8914H32.2265C31.4524 29.8922 30.7103 30.2017 30.1629 30.7518C29.6156 31.3019 29.3077 32.0477 29.3068 32.8257V40.6865C29.2715 41.261 29.0196 41.8003 28.6023 42.1946C28.185 42.5888 27.6339 42.8083 27.0612 42.8083C26.4884 42.8083 25.9373 42.5888 25.52 42.1946C25.1028 41.8003 24.8508 41.261 24.8154 40.6865Z" fill="#191919"/>
<path d="M29.3035 40.6876C29.3035 41.1338 29.1719 41.5699 28.9252 41.9409C28.6786 42.3119 28.328 42.601 27.9178 42.7718C27.5077 42.9425 27.0564 42.9872 26.6209 42.9002C26.1855 42.8131 25.7856 42.5983 25.4717 42.2828C25.1577 41.9673 24.9439 41.5653 24.8573 41.1277C24.7707 40.6901 24.8152 40.2365 24.9851 39.8243C25.155 39.412 25.4427 39.0597 25.8118 38.8118C26.1809 38.5639 26.6149 38.4316 27.0589 38.4316C27.3537 38.4315 27.6456 38.4898 27.918 38.6031C28.1904 38.7164 28.4379 38.8826 28.6464 39.0921C28.8548 39.3016 29.0202 39.5503 29.1329 39.8241C29.2457 40.0979 29.3036 40.3913 29.3035 40.6876Z" fill="#191919"/>
<path d="M29.3035 40.6876C29.3035 41.1338 29.1719 41.5699 28.9252 41.9409C28.6786 42.3119 28.328 42.601 27.9178 42.7718C27.5077 42.9425 27.0564 42.9872 26.6209 42.9002C26.1855 42.8131 25.7856 42.5983 25.4717 42.2828C25.1577 41.9673 24.9439 41.5653 24.8573 41.1277C24.7707 40.6901 24.8152 40.2365 24.9851 39.8243C25.155 39.412 25.4427 39.0597 25.8118 38.8118C26.1809 38.5639 26.6149 38.4316 27.0589 38.4316C27.3537 38.4315 27.6456 38.4898 27.918 38.6031C28.1904 38.7164 28.4379 38.8826 28.6464 39.0921C28.8548 39.3016 29.0202 39.5503 29.1329 39.8241C29.2457 40.0979 29.3036 40.3913 29.3035 40.6876Z" fill="#191919"/>
<path d="M72.6 5.31949H64.0286V0H62.7428V6.41568H72.6V5.31949ZM59.6614 8.97206V10.0736H75V8.97206H59.6614ZM72.7071 51.4397H60.5753V56H72.7071C73.3003 55.987 73.8648 55.7411 74.2798 55.3149C74.6948 54.8887 74.9271 54.3161 74.9271 53.7198C74.9271 53.1235 74.6948 52.5509 74.2798 52.1247C73.8648 51.6985 73.3003 51.4526 72.7071 51.4397ZM72.3064 15.952C72.3064 13.6961 70.1785 11.8698 67.5535 11.8698C64.9285 11.8698 62.7975 13.7004 62.7975 15.952C62.7975 18.2036 64.9253 20.0342 67.5535 20.0342C70.1818 20.0342 72.3064 18.2026 72.3064 15.9466V15.952ZM64.0789 15.952C63.9668 15.2387 64.0748 14.508 64.3886 13.8584C64.7024 13.2087 65.2067 12.6713 65.8337 12.3186C66.4607 11.9659 67.1802 11.8149 67.8952 11.8858C68.6103 11.9567 69.2865 12.2462 69.8329 12.7153C70.3792 13.1843 70.7693 13.8104 70.9506 14.5092C71.132 15.2079 71.0959 15.9458 70.8472 16.6233C70.5984 17.3008 70.1491 17.8854 69.5596 18.2983C68.9701 18.7112 68.2689 18.9326 67.5503 18.9326C66.6973 18.9937 65.8546 18.7146 65.2049 18.1557C64.5551 17.5968 64.1506 16.8031 64.0789 15.9466V15.952ZM59.6614 35.0009H64.4443V37.1126H61.8289V38.2142H71.4932V40.2537H61.9093V42.7616C61.9568 43.3055 62.2147 43.8091 62.6276 44.164C63.0405 44.519 63.5754 44.6971 64.1175 44.66H73.5921V43.5584H64.1175C63.8902 43.5728 63.6663 43.4977 63.4933 43.3489C63.3202 43.2001 63.2117 42.9895 63.1907 42.7616V41.3552H72.7746V37.1126H70.3853V35.0009H74.9925V33.8994H59.6582V35.0009H59.6614ZM65.7289 35.0009H69.1061V37.1126H65.7289V35.0009ZM62.3518 28.0533V30.5451C62.3991 31.0897 62.6573 31.5939 63.071 31.949C63.4846 32.3041 64.0205 32.4817 64.5632 32.4435H72.5196V31.3419H64.5632C64.3359 31.3563 64.112 31.2812 63.939 31.1324C63.7659 30.9836 63.6574 30.7729 63.6364 30.5451V29.1495H72.3353V24.9294H62.3539V26.031H71.0529V28.0468L62.3518 28.0533Z" fill="#191919"/>
</svg>
